Coordinates
version=1
nRows=16
nColumns=40
inDegrees=yes

Units are S.I. units (second, meters, Newtons, ...)
If the header above contains a line with 'inDegrees', this indicates whether rotational values are in degrees (yes) or radians (no).

endheader
time	pelvis_tilt	pelvis_list	pelvis_rotation	pelvis_tx	pelvis_ty	pelvis_tz	hip_flexion_r	hip_adduction_r	hip_rotation_r	knee_angle_r	knee_angle_r_beta	ankle_angle_r	subtalar_angle_r	mtp_angle_r	hip_flexion_l	hip_adduction_l	hip_rotation_l	knee_angle_l	knee_angle_l_beta	ankle_angle_l	subtalar_angle_l	mtp_angle_l	lumbar_extension	lumbar_bending	lumbar_rotation	arm_flex_r	arm_add_r	arm_rot_r	elbow_flex_r	pro_sup_r	wrist_flex_r	wrist_dev_r	arm_flex_l	arm_add_l	arm_rot_l	elbow_flex_l	pro_sup_l	wrist_flex_l	wrist_dev_l
      1.74000000	     -0.50043134	     -5.28735701	     -5.47520774	     -0.29468606	      0.91973368	      0.25044145	     24.13752967	      7.93709530	     -9.12637260	     48.89093936	      0.85330787	     23.96506551	      0.00000000	      0.00000000	     -1.03509887	    -16.17005970	    -12.13283845	     91.74462938	      1.60124585	      5.59714218	      0.00000000	      0.00000000	    -24.04424984	      8.18101614	      4.90780437	     -8.71589892	    -27.78583397	     -1.94198976	     99.20130599	     88.41193010	      0.00000000	      0.00000000	    -14.92420057	    -18.13790829	      4.92892455	    102.42544515	      1.50030852	      0.00000000	      0.00000000
      1.74500000	     -0.49185083	     -5.35793251	     -5.67285273	     -0.27157855	      0.92012768	      0.25106175	     22.46272687	      8.16906251	     -8.46676597	     48.92411471	      0.85388689	     25.32160148	      0.00000000	      0.00000000	      1.11534663	    -16.40605642	    -11.94014728	     92.98349618	      1.62286816	      6.11865971	      0.00000000	      0.00000000	    -24.02743475	      8.06604736	      5.86086333	     -7.89227870	    -27.46431976	     -1.67673367	     99.42819530	     88.27823156	      0.00000000	      0.00000000	    -15.27256683	    -17.68218362	      4.65505089	    101.03319864	      1.60267449	      0.00000000	      0.00000000
      1.75000000	     -0.45693244	     -5.36873899	     -5.86384008	     -0.24848308	      0.92085347	      0.25178546	     20.68231765	      8.36499498	     -7.70420824	     48.77105746	      0.85121553	     26.47285018	      0.00000000	      0.00000000	      3.25512975	    -16.52554055	    -11.70383812	     93.96959922	      1.64007890	      6.50342566	      0.00000000	      0.00000000	    -24.02264785	      7.85844595	      6.56355939	     -6.86415982	    -27.19626319	     -1.11139944	     99.69200679	     88.44029330	      0.00000000	      0.00000000	    -15.94932667	    -17.26962588	      4.08093525	    100.21058569	      1.50359383	      0.00000000	      0.00000000
      1.75500000	     -0.41299160	     -5.30576165	     -6.00847440	     -0.22536836	      0.92189023	      0.25249876	     18.83106595	      8.46854337	     -6.90831647	     48.46065080	      0.84579791	     27.38078401	      0.00000000	      0.00000000	      5.40898024	    -16.49924413	    -11.39487280	     94.70716054	      1.65295178	      6.81251017	      0.00000000	      0.00000000	    -23.99679936	      7.57487435	      7.44484290	     -6.26132813	    -26.87261729	     -0.93013025	    100.31732882	     88.28281459	      0.00000000	      0.00000000	    -16.46494182	    -17.07657051	      3.86359043	     99.56620055	      1.65003373	      0.00000000	      0.00000000
      1.76000000	     -0.33548765	     -5.15402335	     -6.07385544	     -0.20219767	      0.92324836	      0.25309674	     16.90263325	      8.42872700	     -6.13713157	     48.03128182	      0.83830401	     28.03887820	      0.00000000	      0.00000000	      7.54332366	    -16.29304275	    -11.00813898	     95.18673442	      1.66132192	      7.04097835	      0.00000000	      0.00000000	    -23.98573368	      7.19617201	      8.16331395	     -5.65699059	    -26.52375156	     -0.75238529	    101.02285786	     88.42842782	      0.00000000	      0.00000000	    -17.20272563	    -16.94600847	      3.49974655	     99.45233185	      1.53391431	      0.00000000	      0.00000000
      1.76500000	     -0.26990851	     -4.91029931	     -6.00751723	     -0.17896154	      0.92488435	      0.25346453	     14.95660843	      8.21813708	     -5.48183631	     47.48908685	      0.82884092	     28.42628379	      0.00000000	      0.00000000	      9.72367344	    -15.88382918	    -10.49420606	     95.41996359	      1.66539254	      7.19114170	      0.00000000	      0.00000000	    -23.90504740	      6.76743291	      8.67183252	     -5.02127722	    -26.23573551	     -0.39897466	    101.77932551	     88.45149938	      0.00000000	      0.00000000	    -18.05760746	    -16.93711449	      3.16581082	     99.63192821	      1.51189257	      0.00000000	      0.00000000
      1.77000000	     -0.19457543	     -4.57053735	     -5.82109132	     -0.15564212	      0.92680627	      0.25359416	     12.97901514	      7.83308246	     -4.95549243	     46.84668410	      0.81762888	     28.52540730	      0.00000000	      0.00000000	     11.89235619	    -15.25753240	     -9.89307355	     95.39473843	      1.66495227	      7.26557623	      0.00000000	      0.00000000	    -23.81246447	      6.27171672	      9.21196776	     -4.68802019	    -25.90452686	     -0.37579751	    102.78362957	     88.39297447	      0.00000000	      0.00000000	    -18.85024999	    -17.05962168	      3.02093039	    100.05776878	      1.57828318	      0.00000000	      0.00000000
      1.77500000	     -0.14082367	     -4.14275979	     -5.51495487	     -0.13224301	      0.92895370	      0.25348152	     11.01231386	      7.29060083	     -4.58779225	     46.11401329	      0.80484136	     28.31812417	      0.00000000	      0.00000000	     14.06589189	    -14.42307147	     -9.21932885	     95.11995293	      1.66015636	      7.27976613	      0.00000000	      0.00000000	    -23.65725977	      5.72802688	      9.64327892	     -4.41800789	    -25.61964763	     -0.34395630	    103.85271800	     88.42136414	      0.00000000	      0.00000000	    -19.66878077	    -17.28981854	      2.96037329	    100.70419873	      1.56465019	      0.00000000	      0.00000000
      1.78000000	     -0.09527380	     -3.63712051	     -5.10581700	     -0.10875638	      0.93131503	      0.25316048	      9.04259746	      6.61461975	     -4.38124413	     45.29116562	      0.79047996	     27.79877700	      0.00000000	      0.00000000	     16.19454183	    -13.39378818	     -8.50291658	     94.59373411	      1.65097211	      7.24223726	      0.00000000	      0.00000000	    -23.47430962	      5.13408983	      9.96870368	     -4.21116578	    -25.34078068	     -0.34857971	    104.99380606	     88.41690523	      0.00000000	      0.00000000	    -20.53998250	    -17.57825348	      2.89812877	    101.56688907	      1.56909973	      0.00000000	      0.00000000
      1.78500000	     -0.07767550	     -3.07269132	     -4.61327224	     -0.08518528	      0.93382959	      0.25267634	      7.09410658	      5.84480168	     -4.33191758	     44.38241326	      0.77461924	     26.95522025	      0.00000000	      0.00000000	     18.27413223	    -12.20507719	     -7.76805849	     93.82760033	      1.63760055	      7.17620339	      0.00000000	      0.00000000	    -23.25127640	      4.50707150	     10.21831889	     -4.06705716	    -25.09108677	     -0.35754367	    106.19043300	     88.40460763	      0.00000000	      0.00000000	    -21.43015510	    -17.93941193	      2.88329317	    102.57010447	      1.58824845	      0.00000000	      0.00000000
      1.79000000	     -0.08851218	     -2.45885390	     -4.05627788	     -0.06150317	      0.93646469	      0.25207757	      5.16473080	      5.00525098	     -4.43968575	     43.38924209	      0.75728513	     25.80119118	      0.00000000	      0.00000000	     20.27845057	    -10.87919447	     -7.03702376	     92.82503949	      1.62010257	      7.08137985	      0.00000000	      0.00000000	    -22.98957583	      3.84514548	     10.40912848	     -3.98790624	    -24.86850319	     -0.39286190	    107.41795853	     88.38544499	      0.00000000	      0.00000000	    -22.35338768	    -18.31967591	      2.82793001	    103.72252886	      1.58013328	      0.00000000	      0.00000000
      1.79500000	     -0.14554070	     -1.82517402	     -3.46137491	     -0.03769637	      0.93915987	      0.25143181	      3.27060991	      4.14872048	     -4.67200803	     42.30641835	      0.73838629	     24.32434421	      0.00000000	      0.00000000	     22.20622115	     -9.47545794	     -6.32929071	     91.60384492	      1.59878870	      7.00674640	      0.00000000	      0.00000000	    -22.67378294	      3.17640200	     10.55508404	     -3.95040915	    -24.66646691	     -0.40921761	    108.68424099	     88.36487394	      0.00000000	      0.00000000	    -23.29000080	    -18.75942933	      2.80992394	    104.91934281	      1.58512595	      0.00000000	      0.00000000
      1.80000000	     -0.25882271	     -1.17867125	     -2.84936248	     -0.01374405	      0.94187910	      0.25078689	      1.42583332	      3.29308330	     -5.01273810	     41.14004508	      0.71802924	     22.54897530	      0.00000000	      0.00000000	     24.05436191	     -8.01792889	     -5.65929945	     90.16754898	      1.57372061	      6.94264970	      0.00000000	      0.00000000	    -22.29324700	      2.49677588	     10.68631342	     -3.96881751	    -24.48142916	     -0.41903087	    109.94556582	     88.34237849	      0.00000000	      0.00000000	    -24.23332915	    -19.21952963	      2.77763154	    106.12312291	      1.59074357	      0.00000000	      0.00000000
      1.80500000	     -0.42783632	     -0.52135142	     -2.28574241	      0.01037954	      0.94459378	      0.25024122	     -0.36173978	      2.45011638	     -5.38230670	     39.90155196	      0.69641346	     20.45379485	      0.00000000	      0.00000000	     25.79794397	     -6.55431874	     -5.09025836	     88.51988926	      1.54496352	      6.91851515	      0.00000000	      0.00000000	    -21.87000340	      1.76699124	     10.85978591	     -4.07904058	    -24.32854871	     -0.43369604	    111.23284815	     88.31384556	      0.00000000	      0.00000000	    -25.25509687	    -19.66694767	      2.66442874	    107.47290925	      1.56533893	      0.00000000	      0.00000000
      1.81000000	     -0.66348004	      0.13260281	     -1.72417397	      0.03468751	      0.94728027	      0.24974609	     -2.08920347	      1.63245703	     -5.83607829	     38.57171044	      0.67320335	     18.07215656	      0.00000000	      0.00000000	     27.46635492	     -5.08380236	     -4.55514230	     86.67080729	      1.51269095	      6.91031660	      0.00000000	      0.00000000	    -21.36081536	      1.04722797	     11.01049632	     -4.21111016	    -24.15999015	     -0.39741122	    112.47876772	     88.29168784	      0.00000000	      0.00000000	    -26.25748923	    -20.14706787	      2.56355063	    108.67463027	      1.56271055	      0.00000000	      0.00000000
      1.81500000	     -0.95186978	      0.81013287	     -1.25950538	      0.05918234	      0.94993373	      0.24942805	     -3.74453643	      0.81101280	     -6.25542155	     37.18968782	      0.64908250	     15.41063074	      0.00000000	      0.00000000	     29.01864046	     -3.64166068	     -4.16010872	     84.61217507	      1.47676104	      6.93565748	      0.00000000	      0.00000000	    -20.81236211	      0.22852952	     11.22202519	     -4.43796506	    -24.01882579	     -0.36517609	    113.72470228	     88.25726635	      0.00000000	      0.00000000	    -27.35833252	    -20.55494777	      2.29633932	    110.02394920	      1.50198547	      0.00000000	      0.00000000
